<svg fill="#000000" xmlns="http://www.w3.org/2000/svg"  viewBox="0 0 16 16" width="16px" height="16px"><path d="M 2.5 1 C 1.675781 1 1 1.675781 1 2.5 L 1 12.5 C 1 13.324219 1.675781 14 2.5 14 L 12.5 14 C 13.324219 14 14 13.324219 14 12.5 L 14 2.5 C 14 1.675781 13.324219 1 12.5 1 Z M 2.5 2 L 12.5 2 C 12.78125 2 13 2.21875 13 2.5 L 13 12.5 C 13 12.78125 12.78125 13 12.5 13 L 2.5 13 C 2.21875 13 2 12.78125 2 12.5 L 2 8.757813 L 3.121094 9.34375 C 3.046875 9.550781 3 9.769531 3 10 C 3 11.097656 3.902344 12 5 12 C 6.097656 12 7 11.097656 7 10 L 9.375 8 L 9.359375 7.984375 C 9.40625 7.988281 9.453125 8 9.5 8 C 10.875 8 12 6.875 12 5.5 C 12 4.125 10.875 3 9.5 3 C 8.125 3 7 4.125 7 5.5 L 5 8 C 4.496094 8 4.035156 8.195313 3.683594 8.507813 L 2 7.632813 L 2 2.5 C 2 2.21875 2.21875 2 2.5 2 Z M 9.5 4 C 10.335938 4 11 4.664063 11 5.5 C 11 6.335938 10.335938 7 9.5 7 C 8.664063 7 8 6.335938 8 5.5 C 8 4.664063 8.664063 4 9.5 4 Z M 5 9 C 5.558594 9 6 9.441406 6 10 C 6 10.558594 5.558594 11 5 11 C 4.441406 11 4 10.558594 4 10 C 4 9.9375 4.023438 9.882813 4.035156 9.820313 L 4.269531 9.945313 C 4.429688 10.035156 4.625 10.03125 4.78125 9.933594 C 4.9375 9.835938 5.027344 9.664063 5.015625 9.480469 C 5.003906 9.296875 4.894531 9.136719 4.730469 9.054688 L 4.726563 9.054688 C 4.816406 9.03125 4.902344 9 5 9 Z"/></svg>