<?xml version="1.0" encoding="iso-8859-1"?>
<!-- Generator: Adobe Illustrator 19.0.0, SVG Export Plug-In . SVG Version: 6.00 Build 0)  -->
<svg version="1.1" id="Layer_1" xmlns="http://www.w3.org/2000/svg" xmlns:xlink="http://www.w3.org/1999/xlink" x="0px" y="0px"
	 viewBox="0 0 512 512" style="enable-background:new 0 0 512 512;" xml:space="preserve">
<path style="fill:#FFCE54;" d="M240.012,256c0-115.422,76.383-212.984,181.32-244.938C397.707,3.875,372.645,0,346.676,0
	C205.293,0,90.668,114.609,90.668,256c0,141.375,114.625,256,256.008,256c25.969,0,51.031-3.875,74.656-11.062
	C316.395,468.969,240.012,371.406,240.012,256z M348.145,490.656c-0.5,0-0.969,0-1.469,0c-31.688,0-62.406-6.188-91.352-18.422
	c-27.938-11.828-53.031-28.75-74.594-50.297c-21.562-21.562-38.469-46.656-50.297-74.609
	c-12.234-28.906-18.422-59.641-18.422-91.328s6.188-62.422,18.422-91.344c11.828-27.938,28.734-53.031,50.297-74.594
	s46.656-38.484,74.594-50.297c28.945-12.234,59.664-18.438,91.352-18.438c0.5,0,0.969,0,1.469,0
	c-3.969,2.5-7.875,5.109-11.719,7.812c-23.75,16.75-44.688,37.031-62.156,60.266c-17.695,23.516-31.445,49.5-40.883,77.25
	c-9.766,28.703-14.719,58.766-14.719,89.344s4.953,60.625,14.719,89.328c9.438,27.75,23.188,53.75,40.883,77.25
	c17.469,23.25,38.406,43.516,62.156,60.266C340.27,485.547,344.176,488.156,348.145,490.656z"/>
<g>
</g>
<g>
</g>
<g>
</g>
<g>
</g>
<g>
</g>
<g>
</g>
<g>
</g>
<g>
</g>
<g>
</g>
<g>
</g>
<g>
</g>
<g>
</g>
<g>
</g>
<g>
</g>
<g>
</g>
</svg>
